<svg width="708" height="201" viewBox="0 0 708 201" fill="none" xmlns="http://www.w3.org/2000/svg">
<path fill-rule="evenodd" clip-rule="evenodd" d="M128.548 0C136.788 4.16833e-05 144.693 3.27129 150.525 9.1027L190.897 49.4754C196.723 55.3009 200 63.2107 200 71.4516V128.548C200 136.788 196.729 144.693 190.897 150.525L150.525 190.897C144.699 196.723 136.789 200 128.548 200H71.4516C63.2117 200 55.3068 196.729 49.4754 190.897L9.1027 150.525C3.27722 144.699 4.17524e-05 136.789 0 128.548V71.4516C4.20518e-05 63.2117 3.27129 55.3068 9.1027 49.4754L49.4754 9.1027C55.3009 3.27722 63.2107 4.21215e-05 71.4516 0H128.548ZM106.569 186.861H117.635L141.918 143.151C144.159 139.117 145.338 134.572 145.338 129.96V106.568H106.569V186.861ZM54.6647 129.96C54.6647 134.288 55.698 138.55 57.6742 142.386L58.0819 143.147L58.0834 143.151L82.3663 186.861H93.4307V106.568H54.6647V129.96ZM13.1387 128.548C13.1387 133.305 15.0319 137.872 18.3936 141.234L58.7663 181.606C61.0677 183.908 63.9282 185.518 67.0278 186.307L46.5984 149.532L46.5998 149.531C43.2684 143.543 41.526 136.802 41.526 129.96V106.568H13.1387V128.548ZM158.477 129.96C158.477 136.808 156.728 143.548 153.404 149.531L132.974 186.304C136.074 185.514 138.936 183.904 141.234 181.606L181.606 141.234C184.973 137.868 186.861 133.306 186.861 128.548V106.568H158.477V129.96ZM67.0278 13.6933C63.927 14.483 61.0648 16.0951 58.7663 18.3936L18.3936 58.7663C15.0275 62.1324 13.1387 66.6944 13.1387 71.4516V93.4292H41.526V70.0402C41.526 63.1922 43.2751 56.4524 46.5984 50.469L67.0278 13.6933ZM106.569 93.4292H145.338V70.0402C145.338 65.4237 144.163 60.8814 141.921 56.853L141.918 56.8488L117.635 13.1387H106.569V93.4292ZM153.402 50.4633C156.735 56.4528 158.477 63.1959 158.477 70.0402V93.4292H186.861V71.4516C186.861 66.6955 184.968 62.128 181.606 58.7663L141.234 18.3936C138.933 16.0925 136.073 14.4822 132.974 13.6933L153.402 50.4633ZM58.0834 56.8473L58.0848 56.8488C55.844 60.8831 54.6647 65.4275 54.6647 70.0402V93.4292H93.4307V13.1387H82.3663L58.0834 56.8473Z" fill="#FFFBF5"/>
<path d="M386.148 37.7L350.958 163.5H334.808L312.028 75.61H311.688L288.908 163.5H272.758L237.568 37.7H256.608L280.578 132.39H280.918L305.228 37.7H318.658L342.628 131.71H342.968L367.448 37.7H386.148ZM478.455 116.07C478.455 129.67 473.525 141.4 463.665 151.09C453.805 160.95 441.735 165.88 427.625 165.88C413.685 165.88 401.785 160.95 391.755 151.09C381.725 141.4 376.795 129.5 376.795 115.73C376.795 101.96 381.895 90.4 391.925 80.88C401.955 71.53 413.855 66.77 427.625 66.77C441.565 66.77 453.465 71.53 463.495 81.05C473.525 90.57 478.455 102.3 478.455 116.07ZM451.085 139.7C457.545 133.07 460.775 125.25 460.775 116.07C460.775 106.89 457.545 99.07 451.085 92.61C444.625 86.15 436.805 82.92 427.625 82.92C418.445 82.92 410.625 86.15 404.165 92.61C397.705 99.24 394.475 107.06 394.475 116.24C394.475 125.42 397.705 133.24 404.165 139.87C410.625 146.5 418.445 149.73 427.625 149.73C436.805 149.73 444.625 146.33 451.085 139.7ZM528.593 84.96C524.173 84.96 519.923 86.15 515.843 88.36C508.873 91.93 505.473 99.75 505.473 111.99V163.5H487.793V69.32H504.283V77.82H504.623C509.553 70.85 517.543 67.11 528.593 66.77V84.96ZM558.14 163.5H540.46V37.7H558.14V163.5ZM666.44 163.5H650.12V150.07H649.78C642.13 160.61 631.08 165.88 616.46 165.88C602.35 165.88 590.79 161.12 581.44 151.77C572.09 142.42 567.5 130.86 567.5 116.75C567.5 102.64 572.09 90.74 581.44 81.05C590.62 71.53 602.35 66.77 616.46 66.77C622.75 66.77 628.7 67.96 634.48 70.34C640.09 72.89 644.85 76.29 648.42 80.88H648.76V37.7H666.44V163.5ZM650.12 116.58C650.12 107.06 647.06 99.07 640.94 92.61C634.82 86.15 627 82.92 617.48 82.92C608.3 82.92 600.65 86.15 594.53 92.78C588.24 99.41 585.18 107.23 585.18 116.58C585.18 125.59 588.24 133.24 594.53 139.87C600.82 146.5 608.3 149.73 617.31 149.73C626.49 149.73 634.31 146.5 640.6 140.04C646.89 133.58 650.12 125.76 650.12 116.58Z" fill="#FFFBF5"/>
<path d="M692.02 71.5C689.071 71.5 686.374 70.8093 683.93 69.4278C681.486 68.0197 679.547 66.0936 678.112 63.6494C676.704 61.2053 676 58.4821 676 55.4801C676 52.478 676.704 49.7682 678.112 47.3506C679.547 44.9064 681.486 42.9936 683.93 41.6121C686.374 40.204 689.071 39.5 692.02 39.5C694.969 39.5 697.652 40.204 700.07 41.6121C702.514 42.9936 704.44 44.9064 705.848 47.3506C707.283 49.7947 708 52.5046 708 55.4801C708 58.4821 707.283 61.2053 705.848 63.6494C704.44 66.0936 702.514 68.0197 700.07 69.4278C697.652 70.8093 694.969 71.5 692.02 71.5ZM685.644 47.4303H694.092C695.739 47.4303 697.041 47.9085 697.998 48.8649C698.954 49.7947 699.432 51.0035 699.432 52.4913C699.432 53.554 699.127 54.5237 698.516 55.4004C697.905 56.2505 697.054 56.8483 695.965 57.1936L699.751 63.5299H696.125L692.618 57.5523H688.633V63.5299H685.644V47.4303ZM692.02 67.9134C694.384 67.9134 696.496 67.3954 698.356 66.3593C700.216 65.3232 701.664 63.862 702.7 61.9757C703.763 60.0895 704.294 57.9242 704.294 55.4801C704.294 53.0359 703.763 50.884 702.7 49.0243C701.664 47.138 700.216 45.6768 698.356 44.6407C696.496 43.6046 694.384 43.0866 692.02 43.0866C689.655 43.0866 687.53 43.6046 685.644 44.6407C683.784 45.6768 682.323 47.138 681.26 49.0243C680.224 50.884 679.706 53.0359 679.706 55.4801C679.706 57.9242 680.224 60.0895 681.26 61.9757C682.323 63.862 683.784 65.3232 685.644 66.3593C687.53 67.3954 689.655 67.9134 692.02 67.9134ZM693.973 54.6831C694.61 54.6831 695.142 54.4971 695.567 54.1252C695.992 53.7532 696.204 53.2219 696.204 52.5311C696.204 51.8138 695.992 51.2692 695.567 50.8973C695.142 50.4988 694.61 50.2995 693.973 50.2995H688.633V54.6831H693.973Z" fill="#FFFBF5"/>
</svg>
